<svg version="1.1" id="Layer_1" xmlns="http://www.w3.org/2000/svg" xmlns:xlink="http://www.w3.org/1999/xlink" x="0px" y="0px"
	 width="100%" viewBox="0 0 259 194" enable-background="new 0 0 259 194" xml:space="preserve">
<path fill="#FEFFFF" opacity="1.000000" stroke="none" 
	d="
M144.000000,195.000000 
	C96.000000,195.000000 48.500004,195.000000 1.000006,195.000000 
	C1.000004,130.333344 1.000004,65.666679 1.000002,1.000015 
	C87.333321,1.000010 173.666641,1.000010 260.000000,1.000005 
	C260.000000,65.666649 260.000000,130.333298 260.000000,194.999969 
	C221.500000,195.000000 183.000000,195.000000 144.000000,195.000000 
M207.997131,94.502419 
	C207.997131,94.502419 207.861496,94.039528 207.488403,93.309662 
	C206.333267,93.232048 205.178635,93.096062 204.022934,93.086372 
	C196.886490,93.026581 196.867172,93.036003 196.856110,100.283409 
	C196.841888,109.588997 196.863190,118.894638 196.867722,128.200256 
	C196.869705,132.285309 196.868057,136.370361 196.868057,140.842453 
	C207.356369,140.842453 217.132660,140.981735 226.895340,140.680313 
	C228.236710,140.638901 230.265839,138.604477 230.645111,137.146423 
	C231.272339,134.735245 230.815582,132.042084 230.815582,128.893509 
	C222.818832,128.893509 215.610611,128.893509 208.115433,128.893509 
	C208.115433,122.842621 208.141129,117.378304 208.108307,111.914337 
	C208.074387,106.268768 207.983582,100.623550 207.997131,94.502419 
M139.510605,119.081894 
	C142.094040,135.424789 152.218964,143.519318 168.236008,142.046890 
	C176.708359,141.268036 185.212784,134.145874 186.916748,126.062485 
	C181.774826,126.182068 177.015121,124.649963 172.282440,129.251801 
	C165.649811,135.701035 152.201157,129.726898 152.580246,121.869934 
	C164.502548,121.869934 176.448792,121.869934 188.288101,121.869934 
	C191.502228,108.264549 184.769638,95.874992 172.487381,92.215576 
	C155.092468,87.032898 139.863373,99.021568 139.510605,119.081894 
M34.239704,104.896980 
	C33.587677,106.242668 32.834690,107.549515 32.299732,108.940239 
	C28.307913,119.317635 31.744236,131.236832 40.637402,138.011734 
	C49.454334,144.728561 61.939026,144.854309 70.868805,138.316208 
	C79.965347,131.656036 83.775497,119.810402 79.814789,109.451042 
	C76.427765,100.592194 70.033035,94.732147 60.581802,93.172859 
	C49.764961,91.388268 40.978210,95.167671 34.239704,104.896980 
M86.278572,138.090240 
	C87.398842,143.544662 91.620552,140.313339 94.331367,140.586609 
	C95.394272,140.693771 97.724937,137.984772 97.800705,136.474167 
	C98.175217,129.008362 97.860245,121.511360 98.037590,114.031265 
	C98.192139,107.512871 101.746147,103.780991 107.999695,103.066872 
	C115.001602,102.267296 115.885757,100.805542 113.789131,93.071472 
	C112.551712,93.071472 111.234619,93.077202 109.917595,93.070602 
	C93.300888,92.987366 86.280479,100.005013 86.273048,116.712784 
	C86.270012,123.531670 86.273331,130.350555 86.278572,138.090240 
M55.556190,79.928520 
	C58.460400,80.092369 61.364609,80.256218 64.386986,80.426735 
	C64.386986,69.265053 64.386986,58.366123 64.386986,46.613247 
	C59.559856,46.613247 54.976295,46.425209 50.429214,46.749184 
	C49.331150,46.827415 47.478096,48.579937 47.456142,49.594635 
	C47.234207,59.851913 47.320827,70.115868 47.320827,80.568817 
	C50.098934,80.328285 52.375671,80.131165 55.556190,79.928520 
M121.376762,113.501923 
	C121.376762,122.444618 121.376762,131.387314 121.376762,140.591385 
	C123.518806,140.704315 124.977951,140.839737 126.437805,140.848022 
	C132.571548,140.882828 132.979507,140.472092 133.003937,134.353088 
	C133.018555,130.690796 133.006638,127.028389 133.006653,123.366028 
	C133.006653,113.430145 133.006668,103.494270 133.006668,93.329796 
	C131.314468,93.226547 130.186554,93.114601 129.057083,93.095802 
	C121.770447,92.974533 121.405029,93.328087 121.379242,100.517403 
	C121.364906,104.512650 121.377113,108.507996 121.376762,113.501923 
M81.758476,67.553520 
	C81.759048,55.966267 78.352440,51.259285 67.919533,49.133942 
	C67.919533,59.632488 67.897102,70.021896 67.971176,80.410622 
	C67.975990,81.086418 68.560059,82.005074 69.149467,82.389931 
	C73.202858,85.036606 77.329460,87.571159 81.758018,90.345734 
	C81.758018,82.799866 81.758018,75.669136 81.758476,67.553520 
M43.822407,81.589821 
	C43.822407,70.820839 43.822407,60.051849 43.822407,49.251331 
	C37.993965,50.193600 30.391193,55.324284 30.304487,58.934326 
	C30.055054,69.319687 30.216484,79.714912 30.216484,90.196884 
	C34.842884,87.344444 39.036400,84.758896 43.822407,81.589821 
z"/>
<path fill="#54BEAA" opacity="1.000000" stroke="none" 
	d="
M139.464417,118.665131 
	C139.863373,99.021568 155.092468,87.032898 172.487381,92.215576 
	C184.769638,95.874992 191.502228,108.264549 188.288101,121.869934 
	C176.448792,121.869934 164.502548,121.869934 152.580246,121.869934 
	C152.201157,129.726898 165.649811,135.701035 172.282440,129.251801 
	C177.015121,124.649963 181.774826,126.182068 186.916748,126.062485 
	C185.212784,134.145874 176.708359,141.268036 168.236008,142.046890 
	C152.218964,143.519318 142.094040,135.424789 139.464417,118.665131 
M172.264648,112.932037 
	C173.818863,112.826027 175.373093,112.720024 176.953568,112.612221 
	C175.816528,104.810112 170.717133,101.138344 162.731674,101.923775 
	C156.628922,102.524040 152.119614,107.241776 152.510498,112.932014 
	C158.764114,112.932014 165.040207,112.932014 172.264648,112.932037 
z"/>
<path fill="#54BEAA" opacity="1.000000" stroke="none" 
	d="
M34.452271,104.596054 
	C40.978210,95.167671 49.764961,91.388268 60.581802,93.172859 
	C70.033035,94.732147 76.427765,100.592194 79.814789,109.451042 
	C83.775497,119.810402 79.965347,131.656036 70.868805,138.316208 
	C61.939026,144.854309 49.454334,144.728561 40.637402,138.011734 
	C31.744236,131.236832 28.307913,119.317635 32.299732,108.940239 
	C32.834690,107.549515 33.587677,106.242668 34.452271,104.596054 
M47.254280,129.409180 
	C54.189686,133.404770 60.503803,133.120819 65.612068,128.583603 
	C69.931198,124.747314 71.489952,118.072723 69.330116,112.662933 
	C67.112137,107.107506 62.256710,103.793716 56.228237,103.721031 
	C50.078491,103.646873 45.029106,106.649620 42.854263,112.206451 
	C40.380379,118.527351 41.558895,124.232452 47.254280,129.409180 
z"/>
<path fill="#56BEAB" opacity="1.000000" stroke="none" 
	d="
M207.917664,94.978180 
	C207.983582,100.623550 208.074387,106.268768 208.108307,111.914337 
	C208.141129,117.378304 208.115433,122.842621 208.115433,128.893509 
	C215.610611,128.893509 222.818832,128.893509 230.815582,128.893509 
	C230.815582,132.042084 231.272339,134.735245 230.645111,137.146423 
	C230.265839,138.604477 228.236710,140.638901 226.895340,140.680313 
	C217.132660,140.981735 207.356369,140.842453 196.868057,140.842453 
	C196.868057,136.370361 196.869705,132.285309 196.867722,128.200256 
	C196.863190,118.894638 196.841888,109.588997 196.856110,100.283409 
	C196.867172,93.036003 196.886490,93.026581 204.022934,93.086372 
	C205.178635,93.096062 206.333267,93.232048 207.530746,93.767227 
	C207.687958,94.475914 207.802811,94.727043 207.917664,94.978180 
z"/>
<path fill="#58BFAC" opacity="1.000000" stroke="none" 
	d="
M86.276169,137.629837 
	C86.273331,130.350555 86.270012,123.531670 86.273048,116.712784 
	C86.280479,100.005013 93.300888,92.987366 109.917595,93.070602 
	C111.234619,93.077202 112.551712,93.071472 113.789131,93.071472 
	C115.885757,100.805542 115.001602,102.267296 107.999695,103.066872 
	C101.746147,103.780991 98.192139,107.512871 98.037590,114.031265 
	C97.860245,121.511360 98.175217,129.008362 97.800705,136.474167 
	C97.724937,137.984772 95.394272,140.693771 94.331367,140.586609 
	C91.620552,140.313339 87.398842,143.544662 86.276169,137.629837 
z"/>
<path fill="#57BFAB" opacity="1.000000" stroke="none" 
	d="
M55.104301,79.931282 
	C52.375671,80.131165 50.098934,80.328285 47.320827,80.568817 
	C47.320827,70.115868 47.234207,59.851913 47.456142,49.594635 
	C47.478096,48.579937 49.331150,46.827415 50.429214,46.749184 
	C54.976295,46.425209 59.559856,46.613247 64.386986,46.613247 
	C64.386986,58.366123 64.386986,69.265053 64.386986,80.426735 
	C61.364609,80.256218 58.460400,80.092369 55.104301,79.931282 
z"/>
<path fill="#52BDA9" opacity="1.000000" stroke="none" 
	d="
M121.377060,113.002609 
	C121.377113,108.507996 121.364906,104.512650 121.379242,100.517403 
	C121.405029,93.328087 121.770447,92.974533 129.057083,93.095802 
	C130.186554,93.114601 131.314468,93.226547 133.006668,93.329796 
	C133.006668,103.494270 133.006653,113.430145 133.006653,123.366028 
	C133.006638,127.028389 133.018555,130.690796 133.003937,134.353088 
	C132.979507,140.472092 132.571548,140.882828 126.437805,140.848022 
	C124.977951,140.839737 123.518806,140.704315 121.376762,140.591385 
	C121.376762,131.387314 121.376762,122.444618 121.377060,113.002609 
z"/>
<path fill="#FEC861" opacity="1.000000" stroke="none" 
	d="
M81.758247,68.045959 
	C81.758018,75.669136 81.758018,82.799866 81.758018,90.345734 
	C77.329460,87.571159 73.202858,85.036606 69.149467,82.389931 
	C68.560059,82.005074 67.975990,81.086418 67.971176,80.410622 
	C67.897102,70.021896 67.919533,59.632488 67.919533,49.133942 
	C78.352440,51.259285 81.759048,55.966267 81.758247,68.045959 
z"/>
<path fill="#78ACC5" opacity="1.000000" stroke="none" 
	d="
M43.526161,81.881584 
	C39.036400,84.758896 34.842884,87.344444 30.216484,90.196884 
	C30.216484,79.714912 30.055054,69.319687 30.304487,58.934326 
	C30.391193,55.324284 37.993965,50.193600 43.822407,49.251331 
	C43.822407,60.051849 43.822407,70.820839 43.526161,81.881584 
z"/>
<path fill="#48B7A3" opacity="1.000000" stroke="none" 
	d="
M207.957397,94.740295 
	C207.802811,94.727043 207.687958,94.475914 207.717285,94.132156 
	C207.861496,94.039528 207.997131,94.502419 207.957397,94.740295 
z"/>
<path fill="#F9FCFC" opacity="1.000000" stroke="none" 
	d="
M171.790466,112.932022 
	C165.040207,112.932014 158.764114,112.932014 152.510498,112.932014 
	C152.119614,107.241776 156.628922,102.524040 162.731674,101.923775 
	C170.717133,101.138344 175.816528,104.810112 176.953568,112.612221 
	C175.373093,112.720024 173.818863,112.826027 171.790466,112.932022 
z"/>
<path fill="#FDFEFE" opacity="1.000000" stroke="none" 
	d="
M46.957741,129.173080 
	C41.558895,124.232452 40.380379,118.527351 42.854263,112.206451 
	C45.029106,106.649620 50.078491,103.646873 56.228237,103.721031 
	C62.256710,103.793716 67.112137,107.107506 69.330116,112.662933 
	C71.489952,118.072723 69.931198,124.747314 65.612068,128.583603 
	C60.503803,133.120819 54.189686,133.404770 46.957741,129.173080 
z"/>
</svg>